# xmcd
#
# Track frame offsets:
#	150
#	18674
#	35259
#	50085
#	64768
#	82015
#	96299
#	112059
#	124988
#	135176
#	153511
#	169093
#	181841
#	199782
#	211983
#	223095
#	239490
#	255312
#	271896
#	286674
#	297339
#	313246
#	327180
#
# Disc length: 4542 seconds
#
# Revision: 1
# Processed by: cddbd v1.5.2PL0 Copyright (c) Steve Scherf et al.
# Submitted via: audiograbber 1.83.01
#
DISCID=5a11bc17
DTITLE=Glenn Erickson - King Of His Castle
DYEAR=2014
DGENRE=
TTITLE0=King Of His Castle
TTITLE1=Mason Dixon Line
TTITLE2=Beautiful
TTITLE3=Gold Star In The Window
TTITLE4=My Reward
TTITLE5=Gotta´ Lotta´ Livin´
TTITLE6=Santa Ana Blues
TTITLE7=She Said, He Said
TTITLE8=It Couldn´t Happen Without Tears
TTITLE9=It Ain´t Over
TTITLE10=Flower In Her Hair
TTITLE11=Life Comes At Ya´ Fast
TTITLE12=Sad Old Country Song
TTITLE13=Don´t Be Blinded
TTITLE14=I Quit Hurtin´ Yesterday
TTITLE15=Epitaph
TTITLE16=She´s Gone
TTITLE17=For The Sake Of Your Love
TTITLE18=I´ll Soon Get Over You
TTITLE19=Do You Belive In Dreams
TTITLE20=That´s Why I Love You
TTITLE21=Grampa´s Only Sleeping
TTITLE22=Highest That Mankind Has Flown
EXTD=
EXTT0=
EXTT1=
EXTT2=
EXTT3=
EXTT4=
EXTT5=
EXTT6=
EXTT7=
EXTT8=
EXTT9=
EXTT10=
EXTT11=
EXTT12=
EXTT13=
EXTT14=
EXTT15=
EXTT16=
EXTT17=
EXTT18=
EXTT19=
EXTT20=
EXTT21=
EXTT22=
PLAYORDER=
